<svg width="21" height="21" viewBox="0 0 21 21" fill="none" xmlns="http://www.w3.org/2000/svg">
<g clip-path="url(#clip0_8_460)">
<mask id="mask0_8_460" style="mask-type:luminance" maskUnits="userSpaceOnUse" x="0" y="3" width="21" height="13">
<path d="M20.6826 3.39966H0.682617V15.8925H20.6826V3.39966Z" fill="white"/>
</mask>
<g mask="url(#mask0_8_460)">
<path fill-rule="evenodd" clip-rule="evenodd" d="M20.6433 15.2451C20.6433 15.613 20.3429 15.9135 19.9751 15.9135H1.32745C0.959569 15.9135 0.65918 15.613 0.65918 15.2451V4.08886C0.65918 3.7209 0.959569 3.42041 1.32745 3.42041H19.9751C20.343 3.42041 20.6434 3.7209 20.6434 4.08886L20.6433 15.2451Z" fill="#14477C"/>
<path fill-rule="evenodd" clip-rule="evenodd" d="M13.0482 13.2511L13.2321 13.2475L13.4163 13.2362L13.5964 13.2098L13.7729 13.1797L13.9456 13.1384L14.1182 13.0935L14.2834 13.0333L14.4487 12.9697L14.6061 12.898L14.7601 12.8193L14.9104 12.7328L15.0569 12.6391L15.1995 12.5378L15.3347 12.4326L15.4622 12.32L15.5896 12.1996L15.7062 12.0757L15.819 11.9443L15.9278 11.809L16.0291 11.6703L16.1192 11.5237L16.2095 11.3737L16.2844 11.2197L16.3596 11.0583L16.4234 10.8966L16.4798 10.7278L16.5286 10.5587L16.5697 10.386L16.6 10.2056L16.6225 10.0293L16.6373 9.84512L16.641 9.6614L16.6373 9.47716L16.6225 9.29315L16.6 9.11665L16.5697 8.94042L16.5286 8.76743L16.4798 8.59865L16.4234 8.4295L16.3596 8.26814L16.2844 8.11031L16.2095 7.9564L16.1192 7.80624L16.0291 7.65978L15.9278 7.52094L15.819 7.38573L15.7062 7.25435L15.5896 7.13041L15.4622 7.01394L15.3347 6.9013L15.1995 6.79252L15.0569 6.69475L14.9104 6.6008L14.7601 6.5146L14.6061 6.43556L14.4487 6.36423L14.2834 6.3006L14.1182 6.24417L13.9456 6.19541L13.7729 6.1541L13.5964 6.12408L13.4163 6.1015L13.2321 6.08639L13.0482 6.08276L12.8643 6.08639L12.6842 6.1015L12.5039 6.12408L12.3276 6.1541L12.1547 6.19541L11.9821 6.24417L11.8167 6.3006L11.6553 6.36423L11.4976 6.43556L11.3437 6.5146L11.1936 6.6008L11.0471 6.69475L10.9083 6.79252L10.7729 6.9013L10.6416 7.01394L10.5179 7.13041L10.3976 7.25435L10.2888 7.38573L10.1798 7.52094L10.0822 7.65978L9.98838 7.80624L9.90219 7.9564L9.82317 8.11031L9.75188 8.26814L9.68798 8.4295L9.63182 8.59865L9.58311 8.76743L9.5415 8.94042L9.51176 9.11665L9.48913 9.29315L9.47405 9.47716L9.47021 9.6614L9.47405 9.84512L9.48913 10.0293L9.51176 10.2056L9.5415 10.386L9.58311 10.5587L9.63182 10.7278L9.68798 10.8966L9.75188 11.0583L9.82317 11.2197L9.90219 11.3737L9.98838 11.5237L10.0822 11.6703L10.1798 11.809L10.2888 11.9443L10.3976 12.0757L10.5179 12.1996L10.6416 12.32L10.7729 12.4326L10.9083 12.5378L11.0471 12.6391L11.1936 12.7328L11.3437 12.8193L11.4976 12.898L11.6553 12.9697L11.8167 13.0333L11.9821 13.0935L12.1547 13.1384L12.3276 13.1797L12.5039 13.2098L12.6842 13.2362L12.8643 13.2475L13.0482 13.2511Z" fill="#FBB230"/>
<path fill-rule="evenodd" clip-rule="evenodd" d="M8.25387 13.2511L8.43783 13.2475L8.61788 13.2362L8.79828 13.2098L8.9745 13.1797L9.1474 13.1384L9.32029 13.0935L9.48528 13.0333L9.64659 12.9697L9.80442 12.898L9.95828 12.8193L10.1084 12.7328L10.2548 12.6391L10.3936 12.5378L10.5291 12.4326L10.6605 12.32L10.7841 12.1996L10.9044 12.0757L11.0134 11.9443L11.1222 11.809L11.2197 11.6703L11.3136 11.5237L11.3998 11.3737L11.4788 11.2197L11.5501 11.0583L11.614 10.8966L11.6701 10.7278L11.7191 10.5587L11.7605 10.386L11.7903 10.2056L11.8128 10.0293L11.828 9.84512L11.8318 9.6614L11.828 9.47716L11.8128 9.29315L11.7903 9.11665L11.7605 8.94042L11.7191 8.76743L11.6701 8.59865L11.614 8.4295L11.5501 8.26814L11.4788 8.11031L11.3998 7.9564L11.3136 7.80624L11.2197 7.65978L11.1222 7.52094L11.0134 7.38573L10.9044 7.25435L10.7841 7.13041L10.6605 7.01394L10.5291 6.9013L10.3936 6.79252L10.2548 6.69475L10.1084 6.6008L9.95828 6.5146L9.80442 6.43556L9.64659 6.36423L9.48528 6.3006L9.32029 6.24417L9.1474 6.19541L8.9745 6.1541L8.79828 6.12408L8.61788 6.1015L8.43783 6.08639L8.25387 6.08276L8.06998 6.08639L7.88579 6.1015L7.70568 6.12408L7.52923 6.1541L7.35679 6.19541L7.1839 6.24417L7.01869 6.3006L6.85347 6.36423L6.69593 6.43556L6.54207 6.5146L6.39169 6.6008L6.24552 6.69475L6.10283 6.79252L5.96744 6.9013L5.83992 7.01394L5.71239 7.13041L5.59594 7.25435L5.48303 7.38573L5.37432 7.52094L5.27298 7.65978L5.18289 7.80624L5.09263 7.9564L5.01768 8.11031L4.94254 8.26814L4.87867 8.4295L4.82251 8.59865L4.77346 8.76743L4.73607 8.94042L4.70214 9.11665L4.67987 9.29315L4.66471 9.47716L4.66113 9.6614L4.66471 9.84512L4.67987 10.0293L4.70214 10.2056L4.73607 10.386L4.77346 10.5587L4.82251 10.7278L4.87867 10.8966L4.94254 11.0583L5.01768 11.2197L5.09263 11.3737L5.18289 11.5237L5.27298 11.6703L5.37432 11.809L5.48303 11.9443L5.59594 12.0757L5.71239 12.1996L5.83992 12.32L5.96744 12.4326L6.10283 12.5378L6.24552 12.6391L6.39169 12.7328L6.54207 12.8193L6.69593 12.898L6.85347 12.9697L7.01869 13.0333L7.1839 13.0935L7.35679 13.1384L7.52923 13.1797L7.70568 13.2098L7.88579 13.2362L8.06998 13.2475L8.25387 13.2511Z" fill="#EB2230"/>
<path fill-rule="evenodd" clip-rule="evenodd" d="M10.2324 7.45703H12.1361V7.26172H10.3976L10.2324 7.45703Z" fill="#FBB230"/>
<path fill-rule="evenodd" clip-rule="evenodd" d="M9.94775 7.88879H12.1367V7.69348H10.0604L9.94775 7.88879Z" fill="#FBB230"/>
<path fill-rule="evenodd" clip-rule="evenodd" d="M9.7334 8.32091H12.1363V8.12561H9.81982L9.7334 8.32091Z" fill="#FBB230"/>
<path fill-rule="evenodd" clip-rule="evenodd" d="M9.58691 8.75247H12.1363V8.56104H9.64691L9.58691 8.75247Z" fill="#FBB230"/>
<path fill-rule="evenodd" clip-rule="evenodd" d="M9.67256 10.8481H12.1431V10.6528H9.61279L9.67256 10.8481Z" fill="#FBB230"/>
<path fill-rule="evenodd" clip-rule="evenodd" d="M9.85321 11.28H12.1434V11.0847H9.76318L9.85321 11.28Z" fill="#FBB230"/>
<path fill-rule="evenodd" clip-rule="evenodd" d="M10.1122 11.7117H12.1433V11.5164H9.98828L10.1122 11.7117Z" fill="#FBB230"/>
<path fill-rule="evenodd" clip-rule="evenodd" d="M10.4656 12.1435H12.1437V11.9482H10.293L10.4656 12.1435Z" fill="#FBB230"/>
<path fill-rule="evenodd" clip-rule="evenodd" d="M9.50049 9.18453H12.136V8.99292H9.53797L9.50049 9.18453Z" fill="#FBB230"/>
<path fill-rule="evenodd" clip-rule="evenodd" d="M11.1069 10.4162H12.1132V10.2209H11.1446L11.1069 10.4162Z" fill="#FBB230"/>
<path fill-rule="evenodd" clip-rule="evenodd" d="M11.186 9.98412H12.1135V9.78882H11.2237L11.186 9.98412Z" fill="#FBB230"/>
<path fill-rule="evenodd" clip-rule="evenodd" d="M9.43311 9.78882H9.69586V9.98412H9.44835L9.43311 9.78882Z" fill="#FBB230"/>
<path fill-rule="evenodd" clip-rule="evenodd" d="M16.2962 11.6815C16.3901 11.6815 16.4653 11.7603 16.4653 11.8503C16.4653 11.9443 16.3901 12.0194 16.2962 12.0194C16.2023 12.0194 16.1274 11.9443 16.1274 11.8503C16.1274 11.7603 16.2023 11.6815 16.2962 11.6815ZM16.2962 11.7115C16.3752 11.7115 16.4388 11.7754 16.4388 11.8503C16.4388 11.9294 16.3753 11.9932 16.2962 11.9932C16.2213 11.9932 16.1571 11.9294 16.1571 11.8503C16.1571 11.7754 16.2213 11.7115 16.2962 11.7115Z" fill="#FBB230"/>
<path d="M16.2324 11.9255V11.7828H16.2924C16.3073 11.7828 16.3186 11.7828 16.3262 11.7867C16.3335 11.7903 16.3375 11.7941 16.3411 11.7977C16.3447 11.8054 16.3485 11.8129 16.3485 11.8203C16.3485 11.8316 16.3447 11.8428 16.3411 11.8467C16.3334 11.8542 16.3224 11.858 16.3108 11.8616C16.3186 11.8655 16.3223 11.8693 16.3262 11.8729C16.3298 11.8767 16.3375 11.8842 16.3411 11.8954L16.3598 11.9255H16.3262L16.3034 11.8916C16.2994 11.8803 16.2922 11.8768 16.2885 11.8729C16.2885 11.8693 16.2846 11.8693 16.281 11.8655C16.2772 11.8655 16.2733 11.8655 16.2659 11.8655H16.262V11.9255H16.2324ZM16.2622 11.8428H16.2811C16.296 11.8428 16.3035 11.8428 16.3073 11.8393C16.3109 11.8393 16.3151 11.8393 16.3151 11.8354C16.3186 11.8316 16.3186 11.828 16.3186 11.8241C16.3186 11.8203 16.3186 11.8166 16.3151 11.8129C16.3109 11.8089 16.3073 11.8089 16.3035 11.8054C16.3035 11.8054 16.296 11.8054 16.2847 11.8054H16.2622V11.8428H16.2622Z" fill="#FBB230"/>
<path fill-rule="evenodd" clip-rule="evenodd" d="M16.2581 10.2698C16.352 10.2698 16.4269 10.3449 16.4269 10.4389C16.4269 10.5328 16.352 10.6077 16.2581 10.6077C16.1643 10.6077 16.0894 10.5328 16.0894 10.4389C16.0894 10.3449 16.1643 10.2698 16.2581 10.2698ZM16.2581 10.2997C16.3371 10.2997 16.4008 10.3636 16.4008 10.4388C16.4008 10.5176 16.3372 10.5815 16.2581 10.5815C16.1792 10.5815 16.1155 10.5176 16.1155 10.4388C16.1155 10.3636 16.1791 10.2997 16.2581 10.2997Z" fill="white"/>
<path d="M16.1943 10.51V10.3708H16.2544C16.2695 10.3708 16.2808 10.3708 16.2883 10.3747C16.292 10.3747 16.2992 10.3822 16.3031 10.386C16.3069 10.3934 16.3105 10.4009 16.3105 10.4086C16.3105 10.4199 16.3069 10.4273 16.2992 10.4347C16.2957 10.4422 16.2844 10.446 16.2731 10.4499C16.277 10.4534 16.2844 10.4573 16.2883 10.4612C16.292 10.4647 16.2957 10.4722 16.3031 10.4835L16.3221 10.51H16.2882L16.2656 10.4799C16.2581 10.4686 16.2543 10.4612 16.2505 10.4612C16.2469 10.4573 16.2469 10.4534 16.2433 10.4534C16.2391 10.4534 16.2356 10.4534 16.2281 10.4534H16.2207V10.5099L16.1943 10.51ZM16.2208 10.4312H16.2433C16.2582 10.4312 16.2656 10.4312 16.2695 10.4274C16.2731 10.4274 16.277 10.4235 16.277 10.4235C16.2808 10.4199 16.2808 10.416 16.2808 10.4122C16.2808 10.4086 16.277 10.4009 16.277 10.4009C16.2731 10.3973 16.2695 10.3934 16.2657 10.3934C16.2619 10.3934 16.2544 10.3934 16.2433 10.3934H16.2208L16.2208 10.4312Z" fill="white"/>
<path fill-rule="evenodd" clip-rule="evenodd" d="M13.8447 10.5361L14.0887 9.25964H14.3927L14.4304 9.39099C14.4866 9.33454 14.5804 9.25964 14.7682 9.25964L14.6744 9.59758C14.5918 9.59758 14.464 9.58245 14.3591 9.83025C14.2803 10.0181 14.2426 10.3296 14.2013 10.5361H13.8447Z" fill="white"/>
<path fill-rule="evenodd" clip-rule="evenodd" d="M9.2414 8.94043H9.57899L9.50403 9.27832H9.69183L9.63544 9.54113H9.46661L9.37269 10.0481C9.354 10.142 9.37269 10.236 9.56048 10.1982L9.52306 10.48C9.32036 10.6339 8.91458 10.5212 8.97842 10.142L9.2414 8.94043Z" fill="white"/>
<path fill-rule="evenodd" clip-rule="evenodd" d="M10.7472 9.97294C10.7847 9.76641 10.8786 9.25964 10.2742 9.25964C9.71116 9.25964 9.63598 9.82285 9.63598 9.89775C9.61747 9.97294 9.61747 10.5361 10.218 10.5361C10.3681 10.5361 10.5784 10.5174 10.6723 10.4799L10.7285 10.217C10.6723 10.2359 10.4807 10.2547 10.3306 10.2547C10.1993 10.2547 9.97408 10.2547 10.0115 9.97288L10.7472 9.97294Z" fill="white"/>
<path fill-rule="evenodd" clip-rule="evenodd" d="M6.65096 10.5361L6.95136 8.99658H6.36567L5.95262 9.93544L5.87747 8.99658H5.33314L5.03271 10.5361H5.37058L5.59607 9.42844L5.68995 10.5361H6.00908L6.49704 9.44718L6.29048 10.5361H6.65096Z" fill="white"/>
<path fill-rule="evenodd" clip-rule="evenodd" d="M7.04466 9.29705L6.98844 9.57882C7.08236 9.57882 7.30752 9.54111 7.42013 9.54111C7.53279 9.54111 7.68288 9.52243 7.62672 9.71023C7.53279 9.71023 6.9132 9.6163 6.81933 10.1608C6.76701 10.5212 7.19491 10.6527 7.45761 10.48L7.49526 10.5549H7.81417L7.94575 9.86026C8.0846 9.23315 7.48024 9.22186 7.04466 9.29705Z" fill="white"/>
<path fill-rule="evenodd" clip-rule="evenodd" d="M12.6352 9.4098C12.5488 9.35713 12.4962 9.35713 12.3874 9.35713C12.2823 9.35713 12.0344 9.46235 12.0006 9.74384C11.948 10.0969 12.1771 10.2547 12.5111 10.1495L12.6014 10.45C12.0308 10.7353 11.4861 10.2921 11.6665 9.6012C11.8127 9.07926 12.5037 8.76395 12.8492 9.19576L12.6352 9.4098Z" fill="white"/>
<path fill-rule="evenodd" clip-rule="evenodd" d="M15.6123 9.40991C14.6924 8.71887 14.3356 10.5363 15.049 10.5363C15.1616 10.5363 15.2745 10.4801 15.3494 10.4424L15.3868 10.5363H15.7624L16.0629 8.92163H15.7061L15.6123 9.40991Z" fill="white"/>
<path fill-rule="evenodd" clip-rule="evenodd" d="M12.9055 9.29705L12.8493 9.57882C12.9429 9.57882 13.1684 9.54111 13.2808 9.54111C13.3937 9.54111 13.525 9.52243 13.4875 9.71023C13.3937 9.71023 12.7742 9.6163 12.6805 10.1608C12.6425 10.4235 12.868 10.5549 13.0371 10.5549C13.2058 10.5549 13.2622 10.5174 13.3185 10.48L13.3559 10.5549H13.6753L13.8066 9.86025C13.9494 9.23315 13.3447 9.22186 12.9055 9.29705Z" fill="white"/>
<path fill-rule="evenodd" clip-rule="evenodd" d="M10.0112 9.72896H10.443C10.4917 9.38718 10.0825 9.45486 10.0112 9.72896Z" fill="#EB2230"/>
<path fill-rule="evenodd" clip-rule="evenodd" d="M7.57104 9.97296C7.51459 9.97296 7.38324 9.93549 7.27035 10.0107C7.15803 10.0856 7.12032 10.217 7.25184 10.2547C7.36422 10.2921 7.51459 10.217 7.55201 10.1043L7.57104 9.97296Z" fill="#EB2230"/>
<path fill-rule="evenodd" clip-rule="evenodd" d="M15.4437 9.61636C15.3311 9.46599 15.0872 9.57894 15.012 9.86037C14.9558 10.0482 15.0684 10.1796 15.181 10.1796C15.4176 10.1796 15.5602 9.79292 15.4437 9.61636Z" fill="#FBB230"/>
<path fill-rule="evenodd" clip-rule="evenodd" d="M13.4506 9.97296C13.3945 9.97296 13.2631 9.93549 13.1502 10.0107C13.0379 10.0856 13.0002 10.217 13.1318 10.2547C13.2441 10.2921 13.4133 10.217 13.4319 10.1043L13.4506 9.97296Z" fill="#FBB230"/>
<path fill-rule="evenodd" clip-rule="evenodd" d="M10.7471 10.5549L10.7661 10.4235L10.9913 9.27832H11.2915L11.3289 9.40972C11.3854 9.35328 11.4793 9.27832 11.667 9.27832L11.5731 9.61626C11.5018 9.61626 11.3515 9.60113 11.2389 9.90159C11.175 10.0743 11.1375 10.3673 11.1037 10.5549H10.7471Z" fill="white"/>
<path fill-rule="evenodd" clip-rule="evenodd" d="M8.93003 9.5864H8.91484H8.9L8.88516 9.58256L8.87003 9.57895H8.8549L8.84 9.57506C8.77232 9.56766 8.7161 9.56377 8.64865 9.56766C8.47576 9.5825 8.40086 9.69127 8.54711 9.77391C8.66355 9.84165 8.75381 9.8303 8.83232 9.90554C9.00143 10.0631 8.91496 10.3674 8.72716 10.4837L8.69358 10.4988L8.6561 10.5139L8.61484 10.5249L8.57742 10.5362C8.39708 10.5662 8.15312 10.5588 7.97656 10.4988L8.02533 10.247C8.16797 10.2771 8.40092 10.341 8.50969 10.2661C8.63364 10.1834 8.52098 10.0857 8.43066 10.0444L8.38579 10.0294L8.34092 10.0108C7.98407 9.84904 8.06693 9.41723 8.40453 9.3272C8.53971 9.29718 8.6749 9.29718 8.81393 9.30846H8.84006C8.87398 9.31208 8.90401 9.31597 8.93398 9.32336H8.94888L8.96017 9.3272H8.97146L8.97885 9.33104H8.99014L8.93003 9.5864Z" fill="white"/>
</g>
</g>
<defs>
<clipPath id="clip0_8_460">
<rect width="20" height="12.4928" fill="white" transform="translate(0.681641 3.39966)"/>
</clipPath>
</defs>
</svg>
